<svg width="19" height="19" viewBox="0 0 19 19" fill="none" xmlns="http://www.w3.org/2000/svg">
<path d="M13.4292 7.49713C13.6502 7.73808 14.0085 7.73808 14.2295 7.49713C14.4504 7.25618 14.4504 6.86552 14.2295 6.62457L10.5027 2.56118C9.83972 1.83833 8.76483 1.83833 8.10186 2.56118L4.37509 6.62457C4.1541 6.86552 4.1541 7.25618 4.37509 7.49713C4.59608 7.73808 4.95438 7.73808 5.17537 7.49713L8.90214 3.43374C9.12313 3.19279 9.48142 3.19279 9.70241 3.43374L13.4292 7.49713Z" fill="black" fill-opacity="0.2"/>
<path d="M5.17537 11.2538C4.95438 11.0129 4.59608 11.0129 4.37509 11.2538C4.1541 11.4948 4.1541 11.8854 4.37509 12.1264L8.10186 16.1898C8.76483 16.9126 9.83972 16.9126 10.5027 16.1898L14.2295 12.1264C14.4504 11.8854 14.4504 11.4948 14.2295 11.2538C14.0085 11.0129 13.6502 11.0129 13.4292 11.2538L9.70241 15.3172C9.48142 15.5582 9.12313 15.5582 8.90214 15.3172L5.17537 11.2538Z" fill="black" fill-opacity="0.2"/>
</svg>
