<svg width="18" height="22" viewBox="0 0 18 22" fill="none" xmlns="http://www.w3.org/2000/svg">
<path d="M5.83001 1.99988C6.7897 1.36774 7.93889 0.999878 9.17399 0.999878C12.5357 0.999878 15.261 3.7251 15.261 7.08684V9.17938C15.261 10.2797 15.97 11.2421 16.5336 12.1871C16.8299 12.6839 17.0001 13.2646 17.0001 13.885C17.0001 15.4879 15.8549 16.8632 14.2672 17.0833C12.6905 17.3019 10.7203 17.5218 9.17399 17.5218C7.62764 17.5218 5.6575 17.3019 4.08081 17.0833C2.4931 16.8632 1.3479 15.4879 1.3479 13.885C1.3479 13.2646 1.5181 12.6839 1.81437 12.1871C2.37796 11.2421 3.08704 10.2797 3.08704 9.17936V7.08683C3.08704 6.25566 3.25363 5.46339 3.55525 4.74161" stroke="#464646" stroke-width="1.5" stroke-linecap="round"/>
<path d="M11.3479 19.8339C10.8805 20.5368 10.0814 21 9.17399 21C8.26661 21 7.46744 20.5368 7.00008 19.8339" stroke="#464646" stroke-width="1.5" stroke-linecap="round"/>
</svg>
