<svg width="21" height="22" viewBox="0 0 21 22" fill="none" xmlns="http://www.w3.org/2000/svg">
<path d="M19.1874 11.3994V15.3994C19.1874 18.1608 16.9488 20.3994 14.1874 20.3994H6.18738C3.42595 20.3994 1.18738 18.1608 1.18738 15.3994V7.39941C1.18738 4.63799 3.42595 2.39941 6.18738 2.39941H10.1874" stroke="white" stroke-width="1.5" stroke-linecap="round"/>
<path d="M11.4831 5.2741L14.9339 1.81812C15.7144 1.03648 16.9802 1.036 17.7613 1.81705L19.4208 3.47654C20.1951 4.25092 20.2032 5.50457 19.4388 6.28884L12.0098 13.911C11.4454 14.4901 10.6713 14.8167 9.86292 14.8166L7.5907 14.8165C6.95376 14.8165 6.4451 14.2856 6.47189 13.6487V13.6487L6.52101 12.4809L6.57013 11.3131V11.3131C6.60172 10.5621 6.91386 9.85031 7.44478 9.31858L9.0512 7.70974" stroke="white" stroke-width="1.5" stroke-linecap="round"/>
<path d="M15.8654 6.00628L17.5515 7.69238" stroke="white" stroke-width="1.5" stroke-linecap="round" stroke-linejoin="round"/>
</svg>
