<svg width="20" height="15" viewBox="0 0 20 15" fill="none" xmlns="http://www.w3.org/2000/svg">
<path d="M1.01331 8.18384C0.745884 7.69482 0.745888 7.10387 1.01333 6.61485C2.71275 3.50744 6.0161 1.39941 9.81271 1.39941C13.6094 1.39941 16.9128 3.50751 18.6122 6.615C18.8796 7.10401 18.8796 7.69496 18.6122 8.18398C16.9127 11.2914 13.6094 13.3994 9.81278 13.3994C6.01611 13.3994 2.71271 11.2913 1.01331 8.18384Z" stroke="white" stroke-width="1.5"/>
<path d="M6.81274 7.39941C6.81274 9.05627 8.15589 10.3994 9.81274 10.3994C11.4696 10.3994 12.8127 9.05627 12.8127 7.39941C12.8127 5.74256 11.4696 4.39941 9.81274 4.39941" stroke="white" stroke-width="1.5" stroke-linecap="round"/>
</svg>
