<svg width="25" height="26" viewBox="0 0 25 26" fill="none" xmlns="http://www.w3.org/2000/svg">
<path d="M19.5583 9.81256C18.9582 8.46473 17.9971 7.3091 16.7812 6.47344C15.5653 5.63777 14.142 5.15463 12.6687 5.07741C11.1953 5.0002 9.72929 5.33192 8.4327 6.03591C7.75908 6.40166 7.14482 6.86048 6.60662 7.39612" stroke="#464646" stroke-opacity="0.6" stroke-width="1.5" stroke-linecap="round"/>
<path d="M3.48187 6.58184L4.21128 9.74138C4.33551 10.2795 4.87246 10.615 5.41059 10.4908L8.57013 9.76139" stroke="#464646" stroke-opacity="0.6" stroke-width="1.5" stroke-linecap="round"/>
<path d="M4.94161 16.3203C5.5417 17.6681 6.50282 18.8238 7.71872 19.6594C8.93462 20.4951 10.3579 20.9782 11.8313 21.0555C13.3046 21.1327 14.7707 20.8009 16.0672 20.097C16.6818 19.7633 17.2469 19.3522 17.75 18.8759" stroke="#464646" stroke-opacity="0.6" stroke-width="1.5" stroke-linecap="round"/>
<path d="M21.0181 19.551L20.2887 16.3914C20.1645 15.8533 19.6275 15.5178 19.0894 15.642L15.9299 16.3714" stroke="#464646" stroke-opacity="0.6" stroke-width="1.5" stroke-linecap="round"/>
</svg>
