<svg width="24" height="24" viewBox="0 0 24 24" fill="none" xmlns="http://www.w3.org/2000/svg">
<path d="M19.1691 7.23389C19.5811 7.40896 20.0168 7.56199 20.3854 7.76674C20.7338 7.96031 21.0224 8.2001 21.1744 8.54844C21.2209 8.65511 21.2656 8.76279 21.3083 8.87143C21.7353 9.95654 20.5296 11.2283 20.5296 12.3944C20.5296 13.5605 21.7353 14.8322 21.3083 15.9173C21.2657 16.0257 21.2212 16.1331 21.1748 16.2395C20.7087 17.308 18.9575 17.3552 18.1332 18.1796C17.3088 19.0039 17.2617 20.7551 16.1931 21.2213C16.0866 21.2677 15.9792 21.3123 15.8707 21.355C14.7856 21.7819 13.5138 20.5762 12.3478 20.5762C11.1817 20.5762 9.90992 21.7819 8.82481 21.355C8.71634 21.3123 8.60883 21.2677 8.50233 21.2212C7.94327 20.9774 7.66379 20.3817 7.4063 19.7511M17.1814 4.78089C16.9498 4.25025 16.6756 3.77797 16.1932 3.56754C16.0867 3.52107 15.9792 3.47648 15.8707 3.43379C14.7856 3.00683 13.5138 4.21255 12.3477 4.21255C11.1817 4.21255 9.90989 3.00684 8.82478 3.4338C8.71632 3.47648 8.60881 3.52107 8.50231 3.56753C7.43389 4.03364 7.38657 5.78449 6.56232 6.60874C5.73805 7.43301 3.98715 7.48028 3.521 8.54871C3.4745 8.65529 3.42987 8.76287 3.38716 8.87142C2.9602 9.95653 4.16592 11.2283 4.16592 12.3944C4.16592 13.5605 2.9602 14.8322 3.38716 15.9173C3.42984 16.0258 3.47442 16.1333 3.52088 16.2398C3.78244 16.8393 4.44859 17.1174 5.12855 17.3915" stroke="white" stroke-width="1.44385" stroke-linecap="round"/>
<circle cx="10.2288" cy="10.2753" r="0.761909" transform="rotate(45 10.2288 10.2753)" fill="white"/>
<circle cx="14.467" cy="14.513" r="0.761909" transform="rotate(45 14.467 14.513)" fill="white"/>
<path d="M10.1929 14.5488L14.5029 10.2388" stroke="white" stroke-width="1.44385" stroke-linecap="round" stroke-linejoin="round"/>
</svg>
