<svg width="21" height="22" viewBox="0 0 21 22" fill="none" xmlns="http://www.w3.org/2000/svg">
<path d="M16.405 11.9552C17.0259 10.108 16.9512 8.0978 16.195 6.30182C15.4388 4.50584 14.0531 3.04762 12.298 2.2009C10.5428 1.35418 8.53901 1.17719 6.66264 1.70316C4.78628 2.22912 3.1664 3.42187 2.10711 5.0575C1.04782 6.69313 0.621946 8.65916 0.909444 10.5865C1.19694 12.5139 2.17804 14.27 3.66856 15.5253C5.15908 16.7806 7.05653 17.4487 9.0047 17.4042C10.9529 17.3596 12.8178 16.6056 14.2494 15.2835" stroke="#464646" stroke-opacity="0.6" stroke-width="1.5" stroke-linecap="round" stroke-linejoin="round"/>
<path fill-rule="evenodd" clip-rule="evenodd" d="M14.3219 15.3642L19.3219 20.3643L14.3219 15.3642Z" fill="#464646" fill-opacity="0.6"/>
<path d="M14.3219 15.3642L19.3219 20.3643" stroke="#464646" stroke-opacity="0.6" stroke-width="1.5" stroke-linecap="round" stroke-linejoin="round"/>
</svg>
