<svg width="19" height="21" viewBox="0 0 19 21" fill="none" xmlns="http://www.w3.org/2000/svg">
<path d="M3.18738 10.8994V9.48169C3.18738 8.45462 2.85426 7.45525 2.23801 6.63359V6.63359C1.3931 5.50705 2.19692 3.89941 3.6051 3.89941H14.7697C16.1778 3.89941 16.9817 5.50705 16.1367 6.63359V6.63359C15.5205 7.45525 15.1874 8.45462 15.1874 9.48169V15.8994C15.1874 18.1086 13.3965 19.8994 11.1874 19.8994H7.18738C4.97824 19.8994 3.18738 18.1086 3.18738 15.8994V14.8994" stroke="white" stroke-width="1.5" stroke-linecap="round"/>
<path d="M11.1874 14.8994L11.1874 8.89941" stroke="white" stroke-width="1.5" stroke-linecap="round" stroke-linejoin="round"/>
<path d="M7.18738 14.8994L7.18738 8.89941" stroke="white" stroke-width="1.5" stroke-linecap="round" stroke-linejoin="round"/>
<path d="M11.8242 1.21498C11.5097 1.01357 11.1378 0.899414 10.7459 0.899414H7.62896C7.23707 0.899414 6.86521 1.01357 6.55066 1.21498" stroke="white" stroke-width="1.5" stroke-linecap="round"/>
</svg>
